<svg xmlns="http://www.w3.org/2000/svg" version="1.1" viewBox="-5.0 -10.0 110.0 135.0">
 <g>
  <path d="m40.625 87.5h-4.6875v-65.625h1.5625c1.7188 0 3.125-1.4062 3.125-3.125v-1.5625h25v7.2969l-3.9062 5.2031h-2.3438c-0.85938 0-1.5625 0.70312-1.5625 1.5625v6.25c0 0.85938 0.70312 1.5625 1.5625 1.5625h15.625c0.85938 0 1.5625-0.70312 1.5625-1.5625v-6.25c0-0.85938-0.70312-1.5625-1.5625-1.5625h-2.3438l-3.9062-5.2031v-7.2969h20.312c0.85938 0 1.5625-0.70312 1.5625-1.5625v-6.25c0-0.85938-0.70312-1.5625-1.5625-1.5625h-48.438v-1.5625c0-1.7188-1.4062-3.125-3.125-3.125h-18.75c-1.7188 0-3.125 1.4062-3.125 3.125v1.5625h-10.938c-0.85938 0-1.5625 0.70312-1.5625 1.5625v6.25c0 0.85938 0.70312 1.5625 1.5625 1.5625h10.938v1.5625c0 1.7188 1.4062 3.125 3.125 3.125h1.5625v65.625h-4.6875c-0.85938 0-1.5625 0.70312-1.5625 1.5625v6.25c0 0.85938 0.70312 1.5625 1.5625 1.5625h25c0.85938 0 1.5625-0.70312 1.5625-1.5625v-6.25c0-0.85938-0.70312-1.5625-1.5625-1.5625zm32.812-54.688v3.125h-12.5v-3.125zm-4.6875-3.125h-3.125l1.5625-2.0781zm-28.125-18.75h46.875v3.125h-46.875zm-25 3.125h-9.375v-3.125h9.375zm3.125 4.6875v-12.5h18.75v12.484h-3.125-15.625zm14.062 62.406v6.3438h-6.9219zm-9.375 4.3594v-15.812l8.625 7.9062zm0.75-19.375 8.625-7.9062v15.812zm-0.75-3.5469v-15.812l8.625 7.9062zm0.75-19.359 8.625-7.9062v15.812zm-0.75-3.5625v-15.812l8.625 7.9062zm2.4531-17.797h6.9219v6.3438zm13.172 71.875h-21.875v-3.125h21.875z"/>
  <path d="m67.188 68.75h-6.25c-0.85938 0-1.5625 0.70312-1.5625 1.5625v6.25c0 0.85938 0.70312 1.5625 1.5625 1.5625h6.25c0.85938 0 1.5625-0.70312 1.5625-1.5625v-6.25c0-0.85938-0.70312-1.5625-1.5625-1.5625zm-1.5625 6.25h-3.125v-3.125h3.125z"/>
  <path d="m75 70.312v6.25c0 0.85938 0.70312 1.5625 1.5625 1.5625h6.25c0.85938 0 1.5625-0.70312 1.5625-1.5625v-6.25c0-0.85938-0.70312-1.5625-1.5625-1.5625h-6.25c-0.85938 0-1.5625 0.70312-1.5625 1.5625zm3.125 1.5625h3.125v3.125h-3.125z"/>
  <path d="m95.312 93.75h-3.125v-46.875c0-0.85938-0.70312-1.5625-1.5625-1.5625h-12.5c-0.85938 0-1.5625 0.70312-1.5625 1.5625v6.25h-17.188v-6.25c0-0.85938-0.70312-1.5625-1.5625-1.5625s-1.5625 0.70312-1.5625 1.5625v14.062h-3.125c-0.85938 0-1.5625 0.70312-1.5625 1.5625v31.25h-3.125c-0.85938 0-1.5625 0.70312-1.5625 1.5625s0.70312 1.5625 1.5625 1.5625h46.875c0.85938 0 1.5625-0.70312 1.5625-1.5625s-0.70312-1.5625-1.5625-1.5625zm-35.938-37.5h17.188v4.6875h-17.188zm15.625 37.5h-6.25v-9.375h6.25zm14.062 0h-10.938v-9.375c0-1.7188-1.4062-3.125-3.125-3.125h-6.25c-1.7188 0-3.125 1.4062-3.125 3.125v9.375h-10.938v-29.688h34.375zm0-32.812h-9.375v-12.5h9.375z"/>
 </g>
</svg>