<svg xmlns="http://www.w3.org/2000/svg" data-name="Layer 2" viewBox="0 0 100 125" x="0px" y="0px"><g><path d="m49.57,94H16.01c-2.99,0-5.43-2.44-5.43-5.43V25.71c0-.83.67-1.5,1.5-1.5s1.5.67,1.5,1.5v62.85c0,1.34,1.09,2.43,2.43,2.43h33.56c1.34,0,2.43-1.09,2.43-2.43V11.43c0-1.34-1.09-2.43-2.43-2.43H16.01c-1.34,0-2.43,1.09-2.43,2.43v8.21c0,.83-.67,1.5-1.5,1.5s-1.5-.67-1.5-1.5v-8.21c0-2.99,2.44-5.43,5.43-5.43h33.56c3,0,5.43,2.44,5.43,5.43v77.14c0,3-2.44,5.43-5.43,5.43Z"/><path d="m42.61,19h-19.64c-.83,0-1.5-.67-1.5-1.5V7.5c0-.83.67-1.5,1.5-1.5s1.5.67,1.5,1.5v8.5h16.64V7.5c0-.83.67-1.5,1.5-1.5s1.5.67,1.5,1.5v10c0,.83-.67,1.5-1.5,1.5Z"/><path d="m32.79,53.47c-7.33,0-13.29-5.96-13.29-13.29s5.96-13.29,13.29-13.29,13.29,5.96,13.29,13.29-5.96,13.29-13.29,13.29Zm0-23.57c-5.67,0-10.29,4.61-10.29,10.29s4.61,10.29,10.29,10.29,10.29-4.61,10.29-10.29-4.61-10.29-10.29-10.29Z"/><path d="m29.04,41.68c-.2,0-.39-.04-.58-.11-.18-.08-.34-.19-.48-.33s-.25-.3-.33-.49c-.07-.18-.11-.37-.11-.57,0-.1,0-.2.03-.29.02-.1.05-.19.08-.28.04-.09.09-.18.14-.26.06-.08.12-.16.19-.23.07-.07.14-.13.23-.19.08-.05.16-.1.26-.14.09-.03.18-.06.28-.08.19-.04.39-.04.58,0,.1.02.19.05.28.08.09.04.18.09.26.14.08.06.16.12.23.19.28.28.44.67.44,1.06s-.16.77-.44,1.06c-.14.14-.31.25-.49.33-.18.07-.37.11-.57.11Z"/><path d="m32.79,85.43c-7.33,0-13.29-5.96-13.29-13.29s5.96-13.29,13.29-13.29,13.29,5.96,13.29,13.29-5.96,13.29-13.29,13.29Zm0-23.57c-5.67,0-10.29,4.61-10.29,10.29s4.61,10.29,10.29,10.29,10.29-4.61,10.29-10.29-4.61-10.29-10.29-10.29Z"/><path d="m29.04,73.64c-.2,0-.39-.03-.58-.11-.18-.08-.34-.18-.48-.33-.14-.14-.25-.3-.33-.48-.07-.18-.11-.38-.11-.57,0-.1,0-.2.03-.3.02-.09.05-.19.08-.28.04-.09.09-.18.14-.26.06-.08.12-.16.19-.23.07-.06.14-.13.23-.18.08-.06.16-.1.26-.14.09-.04.18-.07.28-.09.19-.04.39-.04.58,0,.1.02.19.05.28.09.09.04.18.08.26.14.08.05.16.12.23.18.28.28.44.67.44,1.07s-.16.77-.44,1.05c-.14.15-.31.25-.49.33-.18.08-.37.11-.57.11Z"/></g><path d="m71.85,51.5c-.83,0-1.5-.67-1.5-1.5v-23.17c0-.87-.71-1.58-1.58-1.58h-9.38c-.83,0-1.5-.67-1.5-1.5s.67-1.5,1.5-1.5h9.38c2.53,0,4.58,2.05,4.58,4.58v23.17c0,.83-.67,1.5-1.5,1.5Z"/><path d="m79.62,51.5c-.83,0-1.5-.67-1.5-1.5v-23.3c0-5.3-4.31-9.62-9.62-9.62h-9.11c-.83,0-1.5-.67-1.5-1.5s.67-1.5,1.5-1.5h9.11c6.96,0,12.62,5.66,12.62,12.62v23.3c0,.83-.67,1.5-1.5,1.5Z"/><path d="m87.92,70.25h-23.97c-.83,0-1.5-.67-1.5-1.5v-10.22c0-4.87,3.96-8.82,8.82-8.82h9.33c4.87,0,8.82,3.96,8.82,8.82v10.22c0,.83-.67,1.5-1.5,1.5Zm-22.47-3h20.97v-8.72c0-3.21-2.61-5.82-5.82-5.82h-9.33c-3.21,0-5.82,2.61-5.82,5.82v8.72Z"/><path d="m84.62,82.84h-1.9c-1.84,0-3.33-1.49-3.33-3.33v-10.09c0-.83.67-1.5,1.5-1.5h5.56c.83,0,1.5.67,1.5,1.5v10.09c0,1.84-1.49,3.33-3.33,3.33Zm-2.23-11.92v8.59c0,.18.15.33.33.33h1.9c.18,0,.33-.15.33-.33v-8.59h-2.56Z"/><path d="m69.35,82.84h-1.9c-1.84,0-3.33-1.49-3.33-3.33v-10.09c0-.83.67-1.5,1.5-1.5h5.56c.83,0,1.5.67,1.5,1.5v10.09c0,1.84-1.49,3.33-3.33,3.33Zm-2.23-11.92v8.59c0,.18.15.33.33.33h1.9c.18,0,.33-.15.33-.33v-8.59h-2.56Z"/><path d="m75.98,61.86c-.83,0-1.54-.67-1.54-1.5s.63-1.5,1.46-1.5h.08c.83,0,1.5.67,1.5,1.5s-.67,1.5-1.5,1.5Z"/></svg>