<svg xmlns="http://www.w3.org/2000/svg" xmlns:xlink="http://www.w3.org/1999/xlink" version="1.1" x="0px" y="0px" viewBox="0 0 100 125" enable-background="new 0 0 100 100" xml:space="preserve"><g><path d="M60.8,46l17.2-17.2c0.3,0.2,0.6,0.2,0.9,0.2c0.4,0,0.7-0.1,1-0.3l5-3c0.2-0.1,0.4-0.3,0.5-0.4l9-11c0.7-0.8,0.6-2-0.1-2.7   l-6-6c-0.7-0.7-1.9-0.8-2.7-0.1l-11,9c-0.2,0.1-0.3,0.3-0.4,0.5l-3,5c-0.4,0.6-0.4,1.4,0,2L54,39.2l-9.5-9.5   c0.4-1.5,0.5-3.1,0.5-4.6c0-11-9-20-20-20c-2,0-3.9,0.3-5.8,0.9c-0.7,0.2-1.2,0.7-1.4,1.4c-0.2,0.7,0,1.4,0.5,1.9l9.9,9.9l-1.9,7.2   l-7.2,1.9l-9.9-9.9c-0.5-0.5-1.2-0.7-1.9-0.5c-0.7,0.2-1.2,0.7-1.4,1.4C5.3,21.1,5,23,5,25c0,11,9,20,20,20c1.6,0,3.1-0.2,4.6-0.5   l6,6c-2.2,4.4-5.8,7.8-10.4,9.7c-0.2,0.1-0.5,0.2-0.6,0.4L8.1,77.1C4,81.2,4,87.8,8.1,91.9c2,2,4.7,3.1,7.4,3.1   c2.7,0,5.4-1,7.4-3.1l16.5-16.5c0.2-0.2,0.3-0.4,0.4-0.6c1.9-4.6,5.3-8.2,9.7-10.4l27.5,27.5c2,2,4.6,3.1,7.4,3.1c0,0,0,0,0,0   c2.8,0,5.4-1.1,7.4-3.1c2-2,3.1-4.6,3.1-7.4c0-2.8-1.1-5.4-3.1-7.4L60.8,46z M44.8,54L74,24.8l1.2,1.2L46,55.2L44.8,54z M77.5,17.3   l9.3-7.6l3.4,3.4l-7.6,9.3l-3.4,2l-3.8-3.8L77.5,17.3z M29.6,40.3C28.1,40.8,26.6,41,25,41c-8.8,0-16-7.2-16-16c0-0.4,0-0.8,0-1.1   l8,8c0.5,0.5,1.2,0.7,1.9,0.5l9.5-2.5c0.7-0.2,1.2-0.7,1.4-1.4l2.5-9.5c0.2-0.7,0-1.4-0.5-1.9l-8-8c0.4,0,0.8,0,1.1,0   c8.8,0,16,7.2,16,16c0,1.6-0.2,3.1-0.7,4.6c-0.2,0.7,0,1.5,0.5,2L51.2,42L42,51.2L31.6,40.8C31.1,40.3,30.3,40.1,29.6,40.3z    M36.3,72.9L20.1,89.1c-2.5,2.5-6.7,2.5-9.2,0c-2.5-2.5-2.5-6.6,0-9.2l16.2-16.2C32,61.6,36,58,38.5,53.4l8.1,8.1   C42,64,38.4,68,36.3,72.9z M89.1,89.1c-1.2,1.2-2.8,1.9-4.6,1.9c0,0,0,0,0,0c-1.7,0-3.4-0.7-4.6-1.9L48.8,58l9.2-9.2l31.1,31.1   c1.2,1.2,1.9,2.9,1.9,4.6C91,86.2,90.3,87.9,89.1,89.1z M32.4,67.6c0.8,0.8,0.8,2,0,2.8l-15,15C17,85.8,16.5,86,16,86   s-1-0.2-1.4-0.6c-0.8-0.8-0.8-2,0-2.8l15-15C30.4,66.8,31.6,66.8,32.4,67.6z M86,84c0,1.1-0.9,2-2,2s-2-0.9-2-2c0-1.1,0.9-2,2-2   S86,82.9,86,84z"/></g></svg>